# xmcd
#
# Track frame offsets:
#	150
#	7463
#	15648
#	21731
#	33596
#	39710
#	47908
#	55926
#	65410
#	71005
#	82004
#	92801
#	98255
#	104302
#	110225
#	114753
#
# Disc length: 1614 seconds
#
# Revision: 1
# Processed by: cddbd v1.5.1PL0 Copyright (c) Steve Scherf et al.
# Submitted via: audiograbber 1.83.01
#
DISCID=de064c10
DTITLE=Reno and Smiley - Strictly Instrumental
DYEAR=2004
DGENRE=Bluegrass
TTITLE0=Dill Pickle Rag
TTITLE1=Lee Highway Blues
TTITLE2=Dear Old Dixie
TTITLE3=Whiskey Before Breakfast
TTITLE4=I Don't Love Nobody
TTITLE5=Whistlin' Blues
TTITLE6=Silver Bells
TTITLE7=Kansas City Railroad Blues
TTITLE8=Black Eyed Susan
TTITLE9=Lost Indian
TTITLE10=Under The Double Eagle
TTITLE11=Katy Hill
TTITLE12=Salt Creek
TTITLE13=Limehouse Blues
TTITLE14=Big Sandy
TTITLE15=Kingdom Coming
EXTD=
EXTT0=
EXTT1=
EXTT2=
EXTT3=
EXTT4=
EXTT5=
EXTT6=
EXTT7=
EXTT8=
EXTT9=
EXTT10=
EXTT11=
EXTT12=
EXTT13=
EXTT14=
EXTT15=
PLAYORDER=
